<svg id="visual" viewBox="0 0 960 300" width="960" height="300" xmlns="http://www.w3.org/2000/svg" xmlns:xlink="http://www.w3.org/1999/xlink" version="1.1"><rect x="0" y="0" width="960" height="300" fill="#161a21"></rect><path d="M0 186L22.8 179.8C45.7 173.7 91.3 161.3 137 160C182.7 158.7 228.3 168.3 274 170.5C319.7 172.7 365.3 167.3 411.2 170C457 172.7 503 183.3 548.8 179C594.7 174.7 640.3 155.3 686 147.2C731.7 139 777.3 142 823 141.5C868.7 141 914.3 137 937.2 135L960 133L960 0L937.2 0C914.3 0 868.7 0 823 0C777.3 0 731.7 0 686 0C640.3 0 594.7 0 548.8 0C503 0 457 0 411.2 0C365.3 0 319.7 0 274 0C228.3 0 182.7 0 137 0C91.3 0 45.7 0 22.8 0L0 0Z" fill="#1f242e"></path><path d="M0 102L22.8 107.2C45.7 112.3 91.3 122.7 137 123.8C182.7 125 228.3 117 274 121.5C319.7 126 365.3 143 411.2 150.8C457 158.7 503 157.3 548.8 155.3C594.7 153.3 640.3 150.7 686 140.7C731.7 130.7 777.3 113.3 823 107.8C868.7 102.3 914.3 108.7 937.2 111.8L960 115L960 0L937.2 0C914.3 0 868.7 0 823 0C777.3 0 731.7 0 686 0C640.3 0 594.7 0 548.8 0C503 0 457 0 411.2 0C365.3 0 319.7 0 274 0C228.3 0 182.7 0 137 0C91.3 0 45.7 0 22.8 0L0 0Z" fill="#50535c"></path><path d="M0 81L22.8 86.2C45.7 91.3 91.3 101.7 137 107.5C182.7 113.3 228.3 114.7 274 109.8C319.7 105 365.3 94 411.2 95.2C457 96.3 503 109.7 548.8 113C594.7 116.3 640.3 109.7 686 103.7C731.7 97.7 777.3 92.3 823 87.5C868.7 82.7 914.3 78.3 937.2 76.2L960 74L960 0L937.2 0C914.3 0 868.7 0 823 0C777.3 0 731.7 0 686 0C640.3 0 594.7 0 548.8 0C503 0 457 0 411.2 0C365.3 0 319.7 0 274 0C228.3 0 182.7 0 137 0C91.3 0 45.7 0 22.8 0L0 0Z" fill="#86888e"></path><path d="M0 78L22.8 73.2C45.7 68.3 91.3 58.7 137 54.7C182.7 50.7 228.3 52.3 274 54.7C319.7 57 365.3 60 411.2 65.3C457 70.7 503 78.3 548.8 75.8C594.7 73.3 640.3 60.7 686 55C731.7 49.3 777.3 50.7 823 57.3C868.7 64 914.3 76 937.2 82L960 88L960 0L937.2 0C914.3 0 868.7 0 823 0C777.3 0 731.7 0 686 0C640.3 0 594.7 0 548.8 0C503 0 457 0 411.2 0C365.3 0 319.7 0 274 0C228.3 0 182.7 0 137 0C91.3 0 45.7 0 22.8 0L0 0Z" fill="#c0c1c4"></path><path d="M0 21L22.8 22.8C45.7 24.7 91.3 28.3 137 33.5C182.7 38.7 228.3 45.3 274 44.2C319.7 43 365.3 34 411.2 30.5C457 27 503 29 548.8 33.5C594.7 38 640.3 45 686 44.7C731.7 44.3 777.3 36.7 823 32.2C868.7 27.7 914.3 26.3 937.2 25.7L960 25L960 0L937.2 0C914.3 0 868.7 0 823 0C777.3 0 731.7 0 686 0C640.3 0 594.7 0 548.8 0C503 0 457 0 411.2 0C365.3 0 319.7 0 274 0C228.3 0 182.7 0 137 0C91.3 0 45.7 0 22.8 0L0 0Z" fill="#fdfdfd"></path></svg>