<svg id="visual" viewBox="0 0 960 200" width="960" height="200" xmlns="http://www.w3.org/2000/svg" xmlns:xlink="http://www.w3.org/1999/xlink" version="1.1"><rect x="0" y="0" width="960" height="200" fill="#161a21"></rect><path d="M0 155L22.8 149.8C45.7 144.7 91.3 134.3 137 133.2C182.7 132 228.3 140 274 141.8C319.7 143.7 365.3 139.3 411.2 141.7C457 144 503 153 548.8 149.3C594.7 145.7 640.3 129.3 686 122.5C731.7 115.7 777.3 118.3 823 117.8C868.7 117.3 914.3 113.7 937.2 111.8L960 110L960 0L937.2 0C914.3 0 868.7 0 823 0C777.3 0 731.7 0 686 0C640.3 0 594.7 0 548.8 0C503 0 457 0 411.2 0C365.3 0 319.7 0 274 0C228.3 0 182.7 0 137 0C91.3 0 45.7 0 22.8 0L0 0Z" fill="#161a21"></path><path d="M0 85L22.8 89.3C45.7 93.7 91.3 102.3 137 103.3C182.7 104.3 228.3 97.7 274 101.3C319.7 105 365.3 119 411.2 125.5C457 132 503 131 548.8 129.3C594.7 127.7 640.3 125.3 686 117C731.7 108.7 777.3 94.3 823 89.7C868.7 85 914.3 90 937.2 92.5L960 95L960 0L937.2 0C914.3 0 868.7 0 823 0C777.3 0 731.7 0 686 0C640.3 0 594.7 0 548.8 0C503 0 457 0 411.2 0C365.3 0 319.7 0 274 0C228.3 0 182.7 0 137 0C91.3 0 45.7 0 22.8 0L0 0Z" fill="#484b51"></path><path d="M0 68L22.8 72.2C45.7 76.3 91.3 84.7 137 89.3C182.7 94 228.3 95 274 91C319.7 87 365.3 78 411.2 79C457 80 503 91 548.8 93.7C594.7 96.3 640.3 90.7 686 85.8C731.7 81 777.3 77 823 73C868.7 69 914.3 65 937.2 63L960 61L960 0L937.2 0C914.3 0 868.7 0 823 0C777.3 0 731.7 0 686 0C640.3 0 594.7 0 548.8 0C503 0 457 0 411.2 0C365.3 0 319.7 0 274 0C228.3 0 182.7 0 137 0C91.3 0 45.7 0 22.8 0L0 0Z" fill="#808286"></path><path d="M0 65L22.8 60.8C45.7 56.7 91.3 48.3 137 45C182.7 41.7 228.3 43.3 274 45.5C319.7 47.7 365.3 50.3 411.2 54.8C457 59.3 503 65.7 548.8 63.5C594.7 61.3 640.3 50.7 686 45.8C731.7 41 777.3 42 823 47.5C868.7 53 914.3 63 937.2 68L960 73L960 0L937.2 0C914.3 0 868.7 0 823 0C777.3 0 731.7 0 686 0C640.3 0 594.7 0 548.8 0C503 0 457 0 411.2 0C365.3 0 319.7 0 274 0C228.3 0 182.7 0 137 0C91.3 0 45.7 0 22.8 0L0 0Z" fill="#bdbec0"></path><path d="M0 17L22.8 18.5C45.7 20 91.3 23 137 27.3C182.7 31.7 228.3 37.3 274 36.5C319.7 35.7 365.3 28.3 411.2 25.3C457 22.3 503 23.7 548.8 27.3C594.7 31 640.3 37 686 36.8C731.7 36.7 777.3 30.3 823 26.7C868.7 23 914.3 22 937.2 21.5L960 21L960 0L937.2 0C914.3 0 868.7 0 823 0C777.3 0 731.7 0 686 0C640.3 0 594.7 0 548.8 0C503 0 457 0 411.2 0C365.3 0 319.7 0 274 0C228.3 0 182.7 0 137 0C91.3 0 45.7 0 22.8 0L0 0Z" fill="#fdfdfd"></path></svg>